<svg xmlns="http://www.w3.org/2000/svg" viewBox="0 0 177.23 32.75"><defs><style>.cls-1{fill:none;stroke:#1d1d1b;stroke-miterlimit:10;stroke-width:0.5px;}</style></defs><g id="Layer_2" data-name="Layer 2"><g id="Layer_1-2" data-name="Layer 1"><path class="cls-1" d="M.33,27.31l.11-.6a.87.87,0,0,1,.87-.77H5.23a.51.51,0,0,1,.56.67L5.72,27c-.17,1,.46,1.61,2.8,1.61,2.14,0,3.08-.81,3.36-2.42l.49-2.76a7.39,7.39,0,0,1-4.2,1.19C3.73,24.65.89,22,1.7,17.47l.63-3.53c.84-4.66,4.16-7.11,8.61-7.11a5.56,5.56,0,0,1,4.65,2A2.63,2.63,0,0,1,18.15,6.9h.17c1.61,0,2.45,1,2.21,2.38L17.59,25.94c-.77,4.34-3.92,6.55-9.52,6.55S-.26,30.6.33,27.31Zm13-9.35.74-4.2C14.4,12,13.53,11,11.46,11a3.14,3.14,0,0,0-3.39,2.8L7.33,18c-.31,1.82.6,2.8,2.63,2.8A3.13,3.13,0,0,0,13.35,18Z"/><path class="cls-1" d="M22.77,23.77l2-11.58-.91-.91a1.64,1.64,0,0,1-.07-2.52L25.08,7.5a1.69,1.69,0,0,1,2.55.07l1.89,1.89A5.05,5.05,0,0,1,33.83,7h.42c1.75,0,2.52.77,2.27,2.17l-.21,1.19a2.21,2.21,0,0,1-2.41,1.79h-.77c-1.82,0-2.8,1-3.15,2.87L28.4,23.77a1.45,1.45,0,0,1-1.5,1.3h-3A1,1,0,0,1,22.77,23.77Z"/><path class="cls-1" d="M36.49,18.42l.84-4.73c.8-4.55,4.06-6.86,9.38-6.86S54.86,9.49,54.09,14l-.38,2.21a1.68,1.68,0,0,1-1.82,1.61H42.16l-.25,1.43c-.31,1.79.42,2.52,2.84,2.52,1.82,0,2.55-.45,2.73-1.54l0-.21a.58.58,0,0,1,.67-.52h4c.45,0,.63.24.56.66l-.07.42c-.6,3.5-3.19,4.94-8.37,4.94C38.8,25.49,35.68,22.86,36.49,18.42ZM43,13.2l-.21,1.19h5.84l.21-1.19c.32-1.85-.42-2.69-2.55-2.69S43.31,11.35,43,13.2Z"/><path class="cls-1" d="M58.71,23.39,56.89,10.44c-.07-.6-.14-1-.14-1.3,0-1.12.49-1.89,1.65-1.89h2.2c1,0,1.4.35,1.54,1.58l1.3,11.79L68.9,8.83C69.46,7.6,70,7.25,71,7.25h2.17c.77,0,1.15.35,1.15,1A3.51,3.51,0,0,1,73.83,10L63.47,31.09A2.43,2.43,0,0,1,60,32.17a2.48,2.48,0,0,1-.91-3.71l2.06-3.39h-.63C59.34,25.07,58.89,24.61,58.71,23.39Z"/><path class="cls-1" d="M76.21,19.61l1.51-8.19H75.9a.73.73,0,0,1-.77-.91l.42-2.39a1.08,1.08,0,0,1,1.08-.87h1.82L79,4.45a2.25,2.25,0,0,1,2.27-2H83a1.47,1.47,0,0,1,1.57,2l-.52,2.8h2.83a.73.73,0,0,1,.77.91l-.42,2.38a1.08,1.08,0,0,1-1.08.88H83.35l-1.47,8c-.17.94.11,1.29,1.05,1.29h1.54c.56,0,.91.35.81,1L84.89,24a1.18,1.18,0,0,1-1.19,1.09H81.25C77,25.07,75.55,23.25,76.21,19.61Z"/><path class="cls-1" d="M89.9,19h1.92c1.51,0,2.1.74,1.86,2.1l-.39,2.14a2.09,2.09,0,0,1-2.38,2H89c-1.51,0-2.1-.73-1.86-2.1L87.52,21A2.1,2.1,0,0,1,89.9,19Z"/><path class="cls-1" d="M97.56,23.46,97.07,10c-.07-2,.35-2.77,1.75-2.77h1.79c1,0,1.47.42,1.47,1.47l.14,10.61,4.41-9.52c.7-1.51,1.29-2,2.69-2h.91c1.37,0,1.82.55,2,2l1,9.52,3.88-10.61a1.91,1.91,0,0,1,2-1.47h1.92c.81,0,1.19.35,1.19,1a5.18,5.18,0,0,1-.49,1.75l-5.25,13.44a2.3,2.3,0,0,1-2.27,1.68h-3.12c-1.08,0-1.57-.49-1.71-1.79l-.91-8-3.75,8.05c-.59,1.3-1.29,1.79-2.34,1.79H99.24A1.52,1.52,0,0,1,97.56,23.46Z"/><path class="cls-1" d="M123.11,18.07l.77-4.31c.81-4.51,4.31-6.93,9.59-6.93,5.5,0,8.65,2.77,7.81,7.42l-.77,4.31c-.81,4.51-4.31,6.93-9.59,6.93C125.42,25.49,122.27,22.72,123.11,18.07Zm11.69.52.88-4.86c.35-1.86-.46-2.8-2.66-2.8a3.08,3.08,0,0,0-3.43,2.8l-.88,4.86c-.35,1.86.46,2.8,2.66,2.8A3.08,3.08,0,0,0,134.8,18.59Z"/><path class="cls-1" d="M143.76,23.77l2-11.58-.91-.91a1.64,1.64,0,0,1-.07-2.52l1.26-1.26a1.7,1.7,0,0,1,2.56.07l1.89,1.89A5,5,0,0,1,154.82,7h.42c1.75,0,2.52.77,2.28,2.17l-.21,1.19a2.22,2.22,0,0,1-2.42,1.79h-.77c-1.82,0-2.8,1-3.15,2.87l-1.57,8.71a1.46,1.46,0,0,1-1.51,1.3h-3A1,1,0,0,1,143.76,23.77Z"/><path class="cls-1" d="M157.31,23.77l3.78-21.49a2.24,2.24,0,0,1,2.27-2H165a1.62,1.62,0,0,1,1.75,2l-3.78,21.49a1.45,1.45,0,0,1-1.5,1.3h-3.05A1,1,0,0,1,157.31,23.77Zm11.76-.14-2.94-5.14a4,4,0,0,1,.56-4.8l4.44-5.28a2.73,2.73,0,0,1,2.28-1.16h2.34c.88,0,1.23.39,1.23,1.08s-.32,1-1,1.79l-5,5.71,3.15,5.42a2.62,2.62,0,0,1-1.33,3.85A3,3,0,0,1,169.07,23.63Z"/></g></g></svg>